<svg xmlns="http://www.w3.org/2000/svg" viewBox="0 0 160 160" fill="none">
  <circle cx="80" cy="80" r="78" fill="#fdf1ee"/>
  <path d="M40 95c0-45 18-78 40-78s40 33 40 78c0 20-4 38-10 52h-60c-6-14-10-32-10-52z" fill="#6b4a3a"/>
  <ellipse cx="80" cy="92" rx="34" ry="38" fill="#ffe1c2"/>
  <path d="M46 88c0-30 15-58 34-58s34 28 34 58c0 8-1 15-3 21-6-22-9-38-31-38s-25 16-31 38c-2-6-3-13-3-21z" fill="#6b4a3a"/>
  <circle cx="68" cy="98" r="6" fill="#ffb3a7" opacity="0.55"/>
  <circle cx="92" cy="98" r="6" fill="#ffb3a7" opacity="0.55"/>
  <path d="M64 88q6-6 12 0M84 88q6-6 12 0" stroke="#3a2a22" stroke-width="2.6" stroke-linecap="round"/>
  <path d="M70 110q10 8 20 0" stroke="#b5604f" stroke-width="2.6" stroke-linecap="round"/>
</svg>
