<svg xmlns="http://www.w3.org/2000/svg" viewBox="0 0 160 160" fill="none">
  <circle cx="80" cy="80" r="78" fill="#fdf1ee"/>
  <circle cx="80" cy="46" r="14" fill="#6b4a3a"/>
  <path d="M44 96c-6-40 12-72 36-72s42 32 36 72c-3 18-9 28-9 28h-54s-6-10-9-28z" fill="#6b4a3a"/>
  <ellipse cx="80" cy="92" rx="32" ry="36" fill="#ffe1c2"/>
  <circle cx="68" cy="96" r="6" fill="#ffb3a7" opacity="0.55"/>
  <circle cx="92" cy="96" r="6" fill="#ffb3a7" opacity="0.55"/>
  <path d="M60 82l14 6M100 82l-14 6" stroke="#3a2a22" stroke-width="2.8" stroke-linecap="round"/>
  <path d="M64 90q5-4 10 0M86 90q5-4 10 0" stroke="#3a2a22" stroke-width="2.4" stroke-linecap="round"/>
  <path d="M71 112q9 5 18 0" stroke="#b5604f" stroke-width="2.6" stroke-linecap="round"/>
</svg>
