<svg xmlns="http://www.w3.org/2000/svg" viewBox="0 0 520 560" fill="none">
  <ellipse cx="260" cy="500" rx="220" ry="40" fill="#f6d9ce" opacity="0.5"/>

  <!-- hair back -->
  <path d="M150 230c0-85 50-150 115-150s115 65 115 150c0 60-15 110-30 150l-40 10c10-50 15-90 15-130 0-70-27-115-60-115s-60 45-60 115c0 40 5 80 15 130l-40-10c-15-40-30-90-30-150z" fill="#5b4034"/>

  <!-- body / cardigan -->
  <path d="M120 560c0-90 30-150 60-170 20 35 50 55 85 55s65-20 85-55c30 20 60 80 60 170z" fill="#f3e7dd"/>
  <path d="M195 410c20 25 45 38 70 38s50-13 70-38l14 12c-22 28-52 44-84 44s-62-16-84-44z" fill="#e9d6c6"/>

  <!-- neck -->
  <rect x="240" y="330" width="40" height="60" rx="18" fill="#ffd9b8"/>

  <!-- face -->
  <ellipse cx="260" cy="290" rx="78" ry="85" fill="#ffe1c2"/>

  <!-- hair front/sides -->
  <path d="M150 230c0-85 50-150 115-150s115 65 115 150c0 25-3 48-8 68-6-55-25-110-30-110-3 30-25 55-55 65 25-8 45-25 55-48-12 35-45 60-82 65 30-12 50-35 58-62-15 35-50 60-95 62-3-12-3-25-3-40z" fill="#6b4a3a"/>
  <path d="M150 235c2 55 14 95 30 120l10-8c-12-22-22-55-25-95z" fill="#6b4a3a"/>
  <path d="M370 235c-2 55-14 95-30 120l-10-8c12-22 22-55 25-95z" fill="#6b4a3a"/>

  <!-- blush -->
  <circle cx="216" cy="305" r="11" fill="#ffb3a7" opacity="0.55"/>
  <circle cx="304" cy="305" r="11" fill="#ffb3a7" opacity="0.55"/>

  <!-- eyes -->
  <path d="M205 285q12-12 24 0" stroke="#3a2a22" stroke-width="4" stroke-linecap="round" fill="none"/>
  <path d="M291 285q12-12 24 0" stroke="#3a2a22" stroke-width="4" stroke-linecap="round" fill="none"/>

  <!-- mouth -->
  <path d="M242 325q18 14 36 0" stroke="#b5604f" stroke-width="4" stroke-linecap="round" fill="none"/>

  <!-- arms holding mug -->
  <path d="M215 430c-25 5-45 25-50 55l30 8c5-20 15-35 30-42z" fill="#f3e7dd"/>
  <path d="M305 430c25 5 45 25 50 55l-30 8c-5-20-15-35-30-42z" fill="#f3e7dd"/>
  <path d="M188 480c-8 14-10 30-6 45l34 4c0-16 2-30 8-42z" fill="#ffd9b8"/>
  <path d="M332 480c8 14 10 30 6 45l-34 4c0-16-2-30-8-42z" fill="#ffd9b8"/>

  <!-- mug -->
  <rect x="222" y="478" width="76" height="58" rx="10" fill="#fbfaf7"/>
  <path d="M298 492h14a14 14 0 0 1 0 28h-14z" fill="none" stroke="#fbfaf7" stroke-width="8"/>
  <rect x="222" y="478" width="76" height="14" rx="7" fill="#f4a7b9"/>

  <!-- steam -->
  <path d="M240 466c-6-10 4-14 0-24M256 460c-6-10 4-14 0-24M272 466c-6-10 4-14 0-24" stroke="#f4a7b9" stroke-width="3" stroke-linecap="round" fill="none" opacity="0.7"/>
</svg>
